<svg width="1000" height="1000" viewBox="0 0 1000 1000" fill="none" xmlns="http://www.w3.org/2000/svg">
<path d="M0 470C0 210.426 210.426 0 470 0H530C789.574 0 1000 210.426 1000 470V530C1000 789.574 789.574 1000 530 1000H470C210.426 1000 0 789.574 0 530V470Z" fill="#D7FF01"/>
<path d="M419.539 585.786C425.33 585.786 430.615 586.691 435.393 588.501C440.243 590.311 444.369 593.061 447.771 596.753L442.776 601.856C439.591 598.671 436.081 596.391 432.244 595.016C428.408 593.64 424.281 592.953 419.865 592.953C415.16 592.953 410.816 593.749 406.835 595.342C402.926 596.862 399.487 599.07 396.52 601.966C393.624 604.789 391.344 608.119 389.679 611.955C388.086 615.719 387.29 619.882 387.29 624.442C387.29 628.931 388.086 633.093 389.679 636.93C391.344 640.766 393.624 644.133 396.52 647.028C399.487 649.851 402.926 652.059 406.835 653.651C410.816 655.172 415.124 655.932 419.757 655.932C424.1 655.932 428.19 655.28 432.026 653.978C434.714 653.082 437.248 651.757 439.628 650.006V624.442H447.337V653.435L446.651 654.022C443.186 656.92 439.18 659.149 434.633 660.71C429.783 662.303 424.715 663.099 419.431 663.099C413.64 663.099 408.283 662.157 403.36 660.275C398.51 658.321 394.276 655.606 390.656 652.132C387.109 648.657 384.322 644.567 382.295 639.861C380.34 635.156 379.363 630.016 379.363 624.442C379.363 618.868 380.34 613.729 382.295 609.023C384.322 604.318 387.145 600.228 390.765 596.753C394.384 593.278 398.619 590.6 403.469 588.718C408.391 586.763 413.748 585.786 419.539 585.786Z" fill="#414244"/>
<path fill-rule="evenodd" clip-rule="evenodd" d="M185.798 662.446H177.328L168.241 642.141H125.825L116.738 662.446H108.377L143.124 586.438H151.051L185.798 662.446ZM128.74 635.626H165.326L147.033 594.746L128.74 635.626Z" fill="#414244"/>
<path fill-rule="evenodd" clip-rule="evenodd" d="M231.707 586.438C238.15 586.438 243.687 587.487 248.32 589.586C252.953 591.613 256.501 594.581 258.962 598.49C261.495 602.327 262.762 606.996 262.762 612.497C262.762 617.854 261.496 622.487 258.962 626.396C256.501 630.233 252.953 633.201 248.32 635.3C247.383 635.71 246.409 636.076 245.397 636.403L263.956 662.446H255.161L237.837 638.001C235.894 638.225 233.851 638.341 231.707 638.341H211.293V662.446H203.258V586.438H231.707ZM211.293 631.5H231.489C239.09 631.5 244.846 629.835 248.755 626.505C252.736 623.175 254.727 618.505 254.727 612.497C254.726 606.417 252.736 601.712 248.755 598.382C244.846 595.052 239.09 593.387 231.489 593.387H211.293V631.5Z" fill="#414244"/>
<path d="M335.068 593.387H308.356V662.446H300.321V593.387H273.609V586.438H335.068V593.387Z" fill="#414244"/>
<path fill-rule="evenodd" clip-rule="evenodd" d="M540.224 662.446H531.754L522.667 642.141H480.251L471.164 662.446H462.803L497.55 586.438H505.477L540.224 662.446ZM483.166 635.626H519.752L501.459 594.746L483.166 635.626Z" fill="#414244"/>
<path d="M565.72 655.497H608.284V662.446H557.684V586.438H565.72V655.497Z" fill="#414244"/>
<path d="M634.547 655.497H677.112V662.446H626.512V586.438H634.547V655.497Z" fill="#414244"/>
<path d="M747.46 593.387H703.375V620.424H742.683V627.265H703.375V655.497H749.089V662.446H695.34V586.438H747.46V593.387Z" fill="#414244"/>
<path fill-rule="evenodd" clip-rule="evenodd" d="M801.313 586.438C807.756 586.438 813.294 587.487 817.927 589.586C822.56 591.613 826.107 594.581 828.568 598.49C831.102 602.327 832.368 606.996 832.368 612.497C832.368 617.854 831.102 622.487 828.568 626.396C826.107 630.233 822.56 633.201 817.927 635.3C816.99 635.71 816.015 636.076 815.004 636.403L833.562 662.446H824.768L807.443 638.001C805.5 638.225 803.457 638.341 801.313 638.341H780.899V662.446H772.864V586.438H801.313ZM780.899 631.5H801.097C808.697 631.5 814.452 629.835 818.361 626.505C822.343 623.175 824.333 618.505 824.333 612.497C824.333 606.417 822.342 601.712 818.361 598.382C814.452 595.052 808.697 593.387 801.097 593.387H780.899V631.5Z" fill="#414244"/>
<path d="M877.527 629.071L903.588 586.438H911.623L881.22 636.188V662.446H873.293V636.188L842.89 586.438H851.468L877.527 629.071Z" fill="#414244"/>
<path fill-rule="evenodd" clip-rule="evenodd" d="M431.412 336.902C446.614 336.902 460.647 339.534 473.51 344.796C486.567 349.863 497.871 357.074 507.421 366.429C516.971 375.784 524.377 386.796 529.64 399.464C535.097 411.937 537.825 425.677 537.825 440.684C537.825 455.69 535.097 469.528 529.64 482.196C524.377 494.67 516.971 505.584 507.421 514.939C497.871 524.294 486.567 531.602 473.51 536.864C460.647 541.932 446.614 544.466 431.412 544.466C416.21 544.466 402.08 541.932 389.022 536.864C376.159 531.602 364.855 524.294 355.11 514.939C345.56 505.39 338.155 494.378 332.893 481.904C327.63 469.236 324.999 455.496 324.999 440.684C324.999 425.872 327.63 412.229 332.893 399.756C338.155 387.088 345.561 376.077 355.11 366.722C364.855 357.172 376.159 349.863 389.022 344.796C402.08 339.534 416.21 336.902 431.412 336.902ZM431.412 350.643C418.354 350.643 406.271 352.884 395.162 357.366C384.053 361.849 374.308 368.183 365.928 376.368C357.742 384.554 351.31 394.104 346.633 405.019C342.15 415.738 339.909 427.626 339.909 440.684C339.909 453.547 342.15 465.436 346.633 476.35C351.31 487.264 357.742 496.813 365.928 504.999C374.308 513.185 384.053 519.519 395.162 524.002C406.271 528.484 418.354 530.726 431.412 530.726C444.47 530.726 456.554 528.485 467.663 524.002C478.772 519.519 488.419 513.185 496.604 504.999C504.79 496.813 511.124 487.264 515.606 476.35C520.284 465.435 522.623 453.547 522.623 440.684C522.623 427.626 520.284 415.738 515.606 405.019C511.124 394.104 504.79 384.554 496.604 376.368C488.419 368.183 478.772 361.849 467.663 357.366C456.554 352.884 444.47 350.643 431.412 350.643Z" fill="#414244"/>
<path d="M210.55 523.784L293.422 338.364H308.916L217.705 543.004H202.795L111.585 338.364H127.956L210.55 523.784Z" fill="#414244"/>
<path d="M756.823 338.364H899.069V351.812H825.399V543.004H810.489V351.812H756.823V351.873H722.368L648.219 472.68V543.004H633.309V472.68L550.868 338.364H567.239L641.202 458.864L715.165 338.364H717.135V338.351H756.823V338.364Z" fill="#414244"/>
</svg>
