<svg width="481" height="196" viewBox="0 0 481 196" fill="none" xmlns="http://www.w3.org/2000/svg">
<path d="M186.334 149.147C189.801 149.147 192.964 149.689 195.824 150.772C198.727 151.856 201.198 153.502 203.234 155.712L200.244 158.768C198.338 156.861 196.236 155.495 193.939 154.672C191.643 153.849 189.173 153.438 186.529 153.438C183.713 153.438 181.113 153.914 178.729 154.867C176.389 155.777 174.33 157.099 172.554 158.832C170.82 160.522 169.456 162.516 168.459 164.812C167.506 167.066 167.029 169.557 167.029 172.287C167.029 174.974 167.506 177.465 168.459 179.762C169.456 182.058 170.821 184.073 172.554 185.807C174.33 187.497 176.389 188.819 178.729 189.772C181.113 190.682 183.691 191.137 186.464 191.137C189.064 191.137 191.513 190.747 193.81 189.967C195.419 189.43 196.935 188.637 198.359 187.589V172.287H202.974V189.643L202.563 189.994C200.489 191.728 198.091 193.063 195.369 193.997C192.466 194.95 189.433 195.427 186.27 195.427C182.803 195.427 179.596 194.864 176.649 193.737C173.746 192.567 171.211 190.942 169.044 188.862C166.921 186.782 165.252 184.334 164.039 181.518C162.869 178.701 162.284 175.624 162.284 172.287C162.284 168.95 162.869 165.873 164.039 163.057C165.252 160.24 166.943 157.792 169.109 155.712C171.276 153.632 173.811 152.029 176.714 150.902C179.66 149.732 182.867 149.147 186.334 149.147ZM46.4131 195.037H41.3438L35.9043 182.882H10.5127L5.07324 195.037H0.0683594L20.8682 149.537H25.6133L46.4131 195.037ZM73.8955 149.537C77.7519 149.537 81.0667 150.165 83.8398 151.422C86.6131 152.635 88.7366 154.412 90.21 156.752C91.7266 159.049 92.4853 161.844 92.4854 165.137C92.4854 168.343 91.7266 171.117 90.21 173.457C88.7366 175.754 86.6131 177.53 83.8398 178.787C83.2792 179.032 82.6957 179.251 82.0908 179.446L93.2002 195.037H87.9355L77.5654 180.403C76.402 180.538 75.1789 180.607 73.8955 180.607H61.6748V195.037H56.8652V149.537H73.8955ZM135.769 153.697H119.778V195.037H114.968V153.697H98.9785V149.537H135.769V153.697ZM258.577 195.037H253.508L248.068 182.882H222.677L217.237 195.037H212.232L233.032 149.537H237.777L258.577 195.037ZM273.839 190.877H299.319V195.037H269.029V149.537H273.839V190.877ZM315.041 190.877H340.521V195.037H310.23V149.537H315.041V190.877ZM382.632 153.697H356.242V169.882H379.772V173.978H356.242V190.877H383.607V195.037H351.432V149.537H382.632V153.697ZM414.868 149.537C418.725 149.537 422.04 150.165 424.813 151.422C427.587 152.635 429.71 154.412 431.184 156.752C432.7 159.049 433.459 161.844 433.459 165.137C433.459 168.343 432.7 171.117 431.184 173.457C429.71 175.754 427.587 177.53 424.813 178.787C424.253 179.033 423.669 179.251 423.063 179.446L434.174 195.037H428.908L418.538 180.403C417.375 180.538 416.151 180.607 414.868 180.607H402.648V195.037H397.839V149.537H414.868ZM460.491 175.058L476.092 149.537H480.901L462.701 179.319V195.037H457.956V179.317L439.757 149.537H444.892L460.491 175.058ZM12.2578 178.982H34.1592L23.208 154.511L12.2578 178.982ZM224.422 178.982H246.323L235.372 154.511L224.422 178.982ZM61.6748 176.512H73.7656C78.3155 176.512 81.7606 175.516 84.1006 173.522C86.4839 171.529 87.6748 168.733 87.6748 165.137C87.6747 161.497 86.4836 158.681 84.1006 156.688C81.7606 154.694 78.3155 153.697 73.7656 153.697H61.6748V176.512ZM402.648 176.512H414.738C419.288 176.512 422.733 175.516 425.073 173.522C427.457 171.529 428.648 168.733 428.648 165.137C428.648 161.497 427.456 158.681 425.073 156.688C422.733 154.694 419.288 153.697 414.738 153.697H402.648V176.512ZM193.441 0.162109C202.541 0.162131 210.942 1.73674 218.642 4.88672C226.458 7.92005 233.225 12.237 238.941 17.8369C244.658 23.4369 249.091 30.029 252.241 37.6123C255.508 45.0789 257.142 53.3038 257.142 62.2871C257.142 71.2703 255.508 79.5535 252.241 87.1367C249.091 94.6034 244.658 101.137 238.941 106.737C233.225 112.337 226.458 116.712 218.642 119.862C210.942 122.896 202.541 124.412 193.441 124.412C184.341 124.412 175.883 122.896 168.066 119.862C160.367 116.712 153.6 112.337 147.767 106.737C142.05 101.021 137.616 94.4286 134.466 86.9619C131.316 79.3787 129.741 71.1537 129.741 62.2871C129.741 53.4205 131.316 45.2537 134.466 37.7871C137.616 30.2038 142.05 23.6117 147.767 18.0117C153.6 12.2952 160.367 7.91999 168.066 4.88672C175.883 1.7368 184.342 0.162109 193.441 0.162109ZM61.2305 112.033L110.839 1.03711H120.113L65.5137 123.537H56.5889L1.98828 1.03711H11.7881L61.2305 112.033ZM388.236 1.03711H473.387V9.08691H429.286V123.537H420.361V9.08691H388.236V9.12402H367.61L323.225 81.4395V123.537H314.299V81.4395L264.949 1.03711H274.749L319.023 73.1699L363.299 1.03711H364.479V1.0293H388.236V1.03711ZM193.441 8.38672C185.625 8.38672 178.391 9.72878 171.741 12.4121C165.091 15.0954 159.258 18.8871 154.241 23.7871C149.341 28.6871 145.491 34.4042 142.691 40.9375C140.008 47.3541 138.666 54.4706 138.666 62.2871C138.666 69.987 140.008 77.1035 142.691 83.6367C145.491 90.1701 149.341 95.8871 154.241 100.787C159.258 105.687 165.091 109.479 171.741 112.162C178.391 114.845 185.625 116.188 193.441 116.188C201.258 116.187 208.492 114.845 215.142 112.162C221.791 109.479 227.566 105.687 232.466 100.787C237.366 95.8871 241.157 90.1701 243.841 83.6367C246.641 77.1034 248.041 69.987 248.041 62.2871C248.041 54.4705 246.641 47.3541 243.841 40.9375C241.157 34.4042 237.366 28.6871 232.466 23.7871C227.566 18.8873 221.791 15.0954 215.142 12.4121C208.492 9.7288 201.258 8.38674 193.441 8.38672Z" fill="#414244"/>
</svg>
